<svg viewBox="0 0 48 48" fill="none" xmlns="http://www.w3.org/2000/svg">
  <path d="M6 18V34C6 35.0609 6.42143 36.0783 7.17157 36.8284C7.92172 37.5786 8.93913 38 10 38H38C39.0609 38 40.0783 37.5786 40.8284 36.8284C41.5786 36.0783 42 35.0609 42 34V18M6 18V14C6 12.9391 6.42143 11.9217 7.17157 11.1716C7.92172 10.4214 8.93913 10 10 10H38C39.0609 10 40.0783 10.4214 40.8284 11.1716C41.5786 11.9217 42 12.9391 42 14V18M6 18H42M14 26H24" stroke-width="4" stroke-linecap="round" stroke-linejoin="round"/>
</svg>