<svg viewBox="0 0 32 32" fill="none" xmlns="http://www.w3.org/2000/svg">
  <path d="M6.66663 25.3333V13.744C6.66663 13.4027 6.74307 13.0795 6.89596 12.7747C7.04885 12.4698 7.25951 12.2187 7.52796 12.0213L14.708 6.58399C15.084 6.29688 15.5133 6.15332 15.996 6.15332C16.4786 6.15332 16.9106 6.29688 17.292 6.58399L24.472 12.02C24.7413 12.2173 24.952 12.4689 25.104 12.7747C25.2568 13.0795 25.3333 13.4027 25.3333 13.744V25.3333C25.3333 25.6907 25.2004 26.0022 24.9346 26.268C24.6688 26.5338 24.3573 26.6667 24 26.6667H19.488C19.1822 26.6667 18.9262 26.5635 18.72 26.3573C18.5137 26.1502 18.4106 25.8942 18.4106 25.5893V19.2307C18.4106 18.9258 18.3075 18.6702 18.1013 18.464C17.8942 18.2569 17.6382 18.1533 17.3333 18.1533H14.6666C14.3617 18.1533 14.1062 18.2569 13.9 18.464C13.6928 18.6702 13.5893 18.9258 13.5893 19.2307V25.5907C13.5893 25.8955 13.4862 26.1511 13.28 26.3573C13.0737 26.5635 13.0737 26.6667 12.5133 26.6667H7.99996C7.64263 26.6667 7.33107 26.5338 7.06529 26.268C6.79951 26.0022 6.66663 25.6907 6.66663 25.3333Z"/>
</svg>