<svg viewBox="0 0 36 35" fill="none" xmlns="http://www.w3.org/2000/svg">
  <path d="M16.8894 1.96038L2.4596 16.3902C2.16532 16.6846 2 17.0838 2 17.5C2 17.9162 2.16532 18.3154 2.4596 18.6098L16.8902 33.0404C17.1846 33.3347 17.5838 33.5 18 33.5C18.4162 33.5 18.8154 33.3347 19.1098 33.0404L33.5396 18.6106C33.8339 18.3162 33.9992 17.917 33.9992 17.5008C33.9992 17.0845 33.8339 16.6853 33.5396 16.391L19.109 1.9596C18.8146 1.66532 18.4155 1.5 17.9992 1.5C17.583 1.5 17.1838 1.66532 16.8894 1.9596V1.96038Z" stroke-width="2.66667" stroke-linejoin="round"/>
  <path d="M13.1229 17.5H22.5413M17.8321 12.7908V22.2092" stroke-width="2.66667" stroke-linecap="round"/>
</svg>