<svg viewBox="0 0 60 60" fill="none" xmlns="http://www.w3.org/2000/svg">
  {/* Removido stroke="#ED4A4C" do círculo */}
  <circle cx="30" cy="30" r="29.5"/>
  {/* Removido fill="#FF5031" e stroke="#ED4A4C" dos paths */}
  <path d="M29.8975 13.8334C31.6282 13.8327 33.2933 14.4763 34.5703 15.6322L34.8203 15.8705C36.1258 17.1753 36.8591 18.9458 36.8594 20.7914L36.8516 21.1361C36.7724 22.7420 36.1387 24.2714 35.0596 25.4633L34.8223 25.7133C33.5171 27.0186 31.7464 27.7513 29.9004 27.7513C28.1715 27.7491 26.5092 27.1054 25.2334 25.9506L24.9834 25.7123C23.6789 24.4086 22.9445 22.6407 22.9414 20.7963L22.9502 20.4515C23.0288 18.8460 23.6610 17.3166 24.7393 16.1244L24.9775 15.8734C26.2007 14.6493 27.8328 13.9280 29.5527 13.8422L29.8975 13.8334ZM29.9004 14.5189H29.4004V14.5404C28.0217 14.6514 26.7153 15.2131 25.6875 16.1439L25.4629 16.3588C24.3593 17.4624 23.7079 18.9345 23.6299 20.4857L23.6221 20.7963V20.7972C23.6222 22.3584 24.2041 23.8594 25.2471 25.0111L25.4609 25.2367C26.6381 26.4143 28.2354 27.0755 29.9004 27.7513C31.4613 27.0756 32.9627 26.4943 34.1143 25.4515L34.3398 25.2367C35.5173 24.0593 36.1786 22.4623 36.1787 20.7972C36.1787 19.2365 35.5975 17.7351 34.5547 16.5834L34.3398 16.3578C33.2810 15.2986 31.8825 14.6588 30.4004 14.5404V14.5179L29.9004 14.5189Z"/>
  <path d="M29.8975 31.3777C32.8060 31.3778 35.6065 32.4431 37.7764 34.3601L38.2021 34.7546C40.2856 36.7844 41.5484 39.5021 41.7646 42.3894L41.7939 42.9685V43.7253C41.7939 44.2917 41.5970 44.8378 41.2412 45.2722L41.0791 45.4519C40.6212 45.9097 40.0000 46.1667 39.3525 46.1667H20.4424C19.8756 46.1667 19.3290 45.9699 18.8945 45.6140L18.7158 45.4519C18.2579 44.9939 18.0001 44.3726 18.0000 43.7253V42.9685C18.0761 40.0611 19.2137 37.2890 21.1865 35.1697L21.5918 34.7546C23.8139 32.5893 26.7945 31.3777 29.8975 31.3777ZM41.1123 42.9421C41.0056 39.1326 38.9740 35.6470 35.7334 33.6736L35.4160 33.4871C32.0979 31.6125 28.0638 31.5539 24.7012 33.3113L24.3779 33.4871C21.0599 35.3617 18.9275 38.7868 18.6973 42.5740L18.6807 42.9421V43.7253L18.6895 43.8992C18.7238 44.2446 18.8600 44.5720 19.0801 44.8406L19.1963 44.9705C19.5262 45.3003 19.9742 45.4860 20.4414 45.4861H39.3525C39.7612 45.4860 40.1547 45.3431 40.4678 45.0867L40.5967 44.9705L40.5977 44.9695C40.9273 44.6393 41.1132 44.1919 41.1133 43.7253V42.9558L41.1123 42.9421Z"/>
</svg>